<?xml version="1.0" encoding="utf-8"?>
<!-- Generator: Adobe Illustrator 24.2.1, SVG Export Plug-In . SVG Version: 6.00 Build 0)  -->
<svg version="1.1" id="Layer_1" xmlns="http://www.w3.org/2000/svg" xmlns:xlink="http://www.w3.org/1999/xlink" x="0px" y="0px"
	 viewBox="0 0 543 500" style="enable-background:new 0 0 543 500;" xml:space="preserve">
<style type="text/css">
	.st0{fill:#F8951A;}
	.st1{fill:#FFFFFF;}
	.st2{fill-rule:evenodd;clip-rule:evenodd;fill:#5A5C5C;}
	.st3{fill-rule:evenodd;clip-rule:evenodd;fill:#FFFFFF;}
</style>
<path class="st0" d="M268.4,14.4C124.2,14.4,7.1,128.9,7.1,270.1c0,93.1,51,174.6,127,219.3c0.8-1,2-1.6,3.6-1.6
	c0.8,0,1.5,0.2,2.1,0.4c0.4-0.6,1-1.2,1.9-1.7c7.4-3.8,14.9-1.6,22.7-0.8c4.7,0.5,9.5-0.2,14.3-0.3c5.4-0.1,10.8,0.1,16.1,0.2
	c18.9,0.5,37.8-0.6,56.8-0.6c9.4,0,18.8,0.6,28.2,1.4c9.1,0.8,18.2,0.8,27.3,1.5c7.1,0.6,14-1.8,21-1c1.1,0.1,2.3,0.4,3.4,0.8
	c0.2-0.1,0.5-0.1,0.7-0.2c5.2-0.9,10.1-0.3,15.1,0.3c0.1,0,0.2-0.1,0.3-0.1c5.4-1.8,9.8-1.1,14.5,0.1c3.8-0.4,7.6-0.9,11.4-0.8
	c0.7,0,1.3,0.1,1.8,0.3c0.6,0.1,1.1,0.2,1.6,0.4c0.8-0.7,1.8-1.1,3.1-1.1c1.4,0,2.5,0.5,3.3,1.2c0.5-0.1,1-0.2,1.6-0.2
	c0.2,0,0.4,0,0.7,0c0.7-0.4,1.6-0.7,2.6-0.7c1,0,1.8,0.2,2.5,0.6c0.8-0.8,1.9-1.3,3.3-1.3c1.4,0,2.5,0.5,3.3,1.2
	c0.8-1.1,2.1-1.9,3.9-1.9c2,0,3.3,0.9,4.1,2.2c74.8-45,124.7-125.8,124.7-217.9C529.6,128.9,412.6,14.4,268.4,14.4z"/>
<path class="st1" d="M153,381.5c0-36.7,52-66.5,116-66.5s116,29.8,116,66.5S333,448,269,448S153,418.2,153,381.5z"/>
<path class="st1" d="M414.2,486.6c5.3-4,10.4-8.1,14.9-13c2.7-3,5.8-6.3,9.6-8c2-4.3,4.5-10.3,5.6-13.8c1.3-4,2.7-8.2,3.3-9.4
	c14.7-33.6,15.9-153.6,2-194.6c-2.7-7.9-2.8-9.2-2.3-26c2.3-71-28.5-150.5-66-170.1c-21.7-11.3-55.9,23.5-69.8,70.9
	c-3.7,12.6-3.8,12.7-17.8,11.5c-6.4-0.5-19.4-1-28.7-1c-19.3,0-18.2,0.5-21.6-10c-12-36.9-28.2-59.9-49.4-70.4
	c-10.6-5.3-11.7-5.3-20.3-1.3c-34.6,16.3-66.5,94.6-66.5,163.6c0,13.6-0.5,19.7-1.6,22.2C98.8,252,90,289.9,87.1,317.1
	c-6.5,59.8-3.5,94,12.1,139.1c2.2,6.3,2.8,10.2,1.7,11.7l32.7,22.1c5.6,0.1,11.8,0.2,18.6,0.2c0.2,0,0.5-0.1,0.7-0.1
	c0.3,0,0.6,0,0.8,0.1c71.5,0.7,199.8,0.7,258.3-0.3C412.3,488.8,412.9,487.5,414.2,486.6z"/>
<g>
	<path class="st2" d="M167.7,77.5c-19.8,18-37.7,51.8-44.8,84.7c-7.1,33-5,42.9,6.7,30.5c17.5-18.6,49.7-38.2,77.8-47.4
		c14.9-4.9,16.6-6.1,15.5-11.1c-5.5-25.2-32.7-62.6-45.5-62.6C175,71.6,172.6,73.1,167.7,77.5z"/>
	<path class="st2" d="M366.4,76.2c-12.6,8.9-23.6,25.2-32.8,48.7c-5.7,14.6-5.9,14.3,11.3,19.8c26.5,8.5,60.9,29.1,77.5,46.3
		c12.9,13.4,15.4,6.2,8.8-25.3c-7.5-36.2-23.2-66.8-44.9-87.8C378,69.9,375.7,69.7,366.4,76.2L366.4,76.2z"/>
	<path class="st2" d="M174.1,200c-43.7,14-54.4,66.7-19.2,94.1c36.2,28.1,91.2,2.5,91.1-42.3C245.9,216.7,207.7,189.2,174.1,200
		L174.1,200z"/>
	<path class="st2" d="M358,233.8c-15.2,6-16.7,21-3.1,29c14.4,8.4,33.8-7.4,25.8-20.9C376.2,234.4,365.9,230.7,358,233.8z"/>
	<path class="st3" d="M197.9,237.1c1.8,0.8,4.4,2.9,5.6,4.7c9.6,13.6-12.7,28.5-24.8,16.5C166.2,246.1,181,229.8,197.9,237.1z"/>
	<path class="st2" d="M251.2,319.2c-13.9,4.2-19.8,10.5-19.6,21.3c0.2,12.7,13.6,30.2,28.5,37c9.1,4.2,8.7,2.7,8.4,31.2
		c-0.2,27,0.2,28.6,7.6,30.9c11.8,3.6,14.3-1.8,15-33l0.6-26.3l6.6-3.1c29.2-13.6,38-44.8,15.4-54.7
		C301.3,317,264.9,315.1,251.2,319.2L251.2,319.2z"/>
</g>
</svg>
